<?xml version="1.0" encoding="utf-8"?>
<!-- Generator: Adobe Illustrator 26.2.1, SVG Export Plug-In . SVG Version: 6.00 Build 0)  -->
<svg version="1.1" id="Livello_1" xmlns="http://www.w3.org/2000/svg" xmlns:xlink="http://www.w3.org/1999/xlink" x="0px" y="0px"
	 viewBox="0 0 200 200" style="enable-background:new 0 0 200 200;" xml:space="preserve">
<style type="text/css">
	.st0{fill:#FFFFFF;}
	.st1{fill:url(#SVGID_1_);}
</style>
<g>
	<rect x="54" y="20.8" class="st0" width="91.7" height="158"/>
	<linearGradient id="SVGID_1_" gradientUnits="userSpaceOnUse" x1="170.7108" y1="170.7106" x2="29.2895" y2="29.2894">
		<stop  offset="0" style="stop-color:#1677F1"/>
		<stop  offset="0.1753" style="stop-color:#186EE9"/>
		<stop  offset="0.4604" style="stop-color:#1D56D3"/>
		<stop  offset="0.8179" style="stop-color:#262FB0"/>
		<stop  offset="1" style="stop-color:#2B189C"/>
	</linearGradient>
	<path class="st1" d="M100,0C44.8,0,0,44.8,0,100s44.8,100,100,100c55.2,0,100-44.8,100-100S155.2,0,100,0z M139.4,50.5h-11.7
		c-11.5,0-15.1,7.2-15.1,14.5v17.4h25.8l-4.1,26.9h-21.6v64.9h-29v-64.9H59.9V82.4h23.6V62c0-23.3,13.9-36.1,35.1-36.1
		c10.2,0,20.8,1.8,20.8,1.8V50.5z"/>
</g>
</svg>
