<?xml version="1.0" encoding="utf-8"?>
<!-- Generator: Adobe Illustrator 26.2.1, SVG Export Plug-In . SVG Version: 6.00 Build 0)  -->
<svg version="1.1" id="Livello_1" xmlns="http://www.w3.org/2000/svg" xmlns:xlink="http://www.w3.org/1999/xlink" x="0px" y="0px"
	 viewBox="0 0 200 200" style="enable-background:new 0 0 200 200;" xml:space="preserve">
<style type="text/css">
	.st0{fill:#FFFFFF;}
	.st1{fill:url(#SVGID_1_);}
</style>
<g>
	<rect x="32.7" y="50.3" class="st0" width="141" height="101.6"/>
	<linearGradient id="SVGID_1_" gradientUnits="userSpaceOnUse" x1="170.7105" y1="170.7106" x2="29.2893" y2="29.2894">
		<stop  offset="0" style="stop-color:#FF0000"/>
		<stop  offset="1" style="stop-color:#9B0000"/>
	</linearGradient>
	<path class="st1" d="M124.1,102.6l-32.9,16.3c-1.3,0.7-5.7-0.2-5.7-1.7V83.7c0-1.5,4.4-2.4,5.7-1.7l31.5,17.1
		C124,99.9,125.4,101.8,124.1,102.6z M200,100c0,55.2-44.8,100-100,100C44.8,200,0,155.2,0,100S44.8,0,100,0
		C155.2,0,200,44.8,200,100z M167.2,82.9c0-15.8-12.8-28.7-28.7-28.7H65.2c-15.8,0-28.7,12.8-28.7,28.7v34.1
		c0,15.8,12.8,28.7,28.7,28.7h73.4c15.8,0,28.7-12.8,28.7-28.7V82.9z"/>
</g>
</svg>
